<svg width="62" height="62" viewBox="0 0 62 62" fill="none" xmlns="http://www.w3.org/2000/svg">
<path d="M24.2186 29.4468C23.361 29.4468 22.6658 30.1421 22.6658 30.9997C22.6658 31.8574 23.3611 32.5526 24.2188 32.5526L24.2186 29.4468ZM37.7813 32.5519C38.6389 32.5519 39.3342 31.8566 39.3341 30.999C39.3341 30.1413 38.6388 29.4461 37.7811 29.4461L37.7813 32.5519ZM29.4475 37.7812C29.4474 38.6388 30.1427 39.3341 31.0003 39.3342C31.858 39.3342 32.5533 38.639 32.5533 37.7813L29.4475 37.7812ZM32.5539 24.2188C32.554 23.3612 31.8588 22.6659 31.0011 22.6658C30.1435 22.6658 29.4482 23.361 29.4481 24.2187L32.5539 24.2188ZM14.4695 31C14.4695 27.7306 15.439 24.5346 17.2554 21.8162L14.673 20.0907C12.5154 23.3199 11.3637 27.1163 11.3637 31H14.4695ZM17.2554 21.8162C19.0718 19.0978 21.6535 16.979 24.674 15.7279L23.4855 12.8585C19.8974 14.3447 16.8307 16.8615 14.673 20.0907L17.2554 21.8162ZM24.674 15.7279C27.6946 14.4767 31.0183 14.1494 34.2249 14.7872L34.8308 11.7411C31.0217 10.9834 27.0735 11.3723 23.4855 12.8585L24.674 15.7279ZM34.2249 14.7872C37.4315 15.425 40.3769 16.9994 42.6887 19.3112L44.8849 17.1151C42.1387 14.3689 38.6399 12.4987 34.8308 11.7411L34.2249 14.7872ZM42.6887 19.3112C45.0006 21.623 46.5749 24.5685 47.2128 27.7751L50.2589 27.1692C49.5012 23.3601 47.6311 19.8613 44.8849 17.1151L42.6887 19.3112ZM47.2128 27.7751C47.8506 30.9817 47.5232 34.3054 46.2721 37.3259L49.1415 38.5145C50.6277 34.9264 51.0166 30.9782 50.2589 27.1692L47.2128 27.7751ZM46.2721 37.3259C45.0209 40.3465 42.9022 42.9282 40.1838 44.7446L41.9093 47.3269C45.1384 45.1693 47.6553 42.1025 49.1415 38.5145L46.2721 37.3259ZM40.1838 44.7446C37.4654 46.5609 34.2694 47.5304 31 47.5304V50.6362C34.8836 50.6362 38.6801 49.4846 41.9093 47.3269L40.1838 44.7446ZM31 47.5304C26.6158 47.5304 22.4112 45.7888 19.3112 42.6888L17.115 44.8849C20.7975 48.5674 25.7921 50.6362 31 50.6362V47.5304ZM19.3112 42.6888C16.2111 39.5887 14.4695 35.3841 14.4695 31H11.3637C11.3637 36.2079 13.4325 41.2024 17.115 44.8849L19.3112 42.6888ZM24.2188 32.5526C31.3242 32.5522 30.9848 32.5522 31.0016 32.5522L30.9998 29.4464C30.9841 29.4464 31.3251 29.4464 24.2186 29.4468L24.2188 32.5526ZM31.0008 32.5522L37.7813 32.5519L37.7811 29.4461L31.0006 29.4464L31.0008 32.5522ZM32.5533 37.7813L32.5536 30.9994L29.4478 30.9992L29.4475 37.7812L32.5533 37.7813ZM32.5536 30.9994L32.5539 24.2188L29.4481 24.2187L29.4478 30.9992L32.5536 30.9994Z" fill="#3E3E3E"/>
</svg>
